<svg width="312" height="379" viewBox="0 0 312 379" fill="none" xmlns="http://www.w3.org/2000/svg">
<path d="M137.25 109.372C133.484 117.43 127.843 126.481 124.962 136.156C119.045 156.484 114.047 177.019 109.05 197.554C99.7662 236.559 90.6044 275.995 80.5748 318.475C104.252 301.554 117.009 271.838 149.732 268.704C148.396 274.679 148.813 279.227 147.06 280.653C119.807 303.246 98.492 331.635 79.3817 361.737C63.4477 386.281 51.2085 384.122 40.5116 356.801C29.45 328.183 15.5937 300.35 3.33425 272.068C1.19846 267.536 1.33668 261.898 0.0339779 255.732C19.6341 259.554 19.6341 259.554 52.1216 319.942C53.7354 313.423 55.3146 308.313 56.4946 303.315C67.53 252.154 78.1662 201.104 90.1218 150.151C94.0955 133.636 99.9094 117.537 107.407 102.831C120.737 76.6872 142.142 71.6027 166.309 88.6046C178.653 97.2657 189.331 109.195 199.21 121.348C210.374 135.007 219.507 150.636 229.995 164.952C237.547 174.96 246.176 184.199 254.649 194.415C265.568 185.746 267.563 174.454 270.6 163.801C283.337 118.694 289.356 72.675 290.132 24.8644C290.271 19.2264 289.489 13.3804 290.946 7.8381C291.814 4.79461 295.598 1.39776 298.792 0.499751C300.389 0.0507478 304.921 3.90934 306.05 6.39158C308.516 13.6304 310.426 21.9586 310.774 29.3262C313.575 82.197 307.817 133.741 292.858 183.206C290.099 193.314 285.499 203.006 280.136 211.512C270.242 226.892 256.945 230.164 242.153 218.925C230.086 209.719 219.808 197.678 210.328 185.412C196.229 167.446 184.283 147.941 170.185 129.975C162.354 120.512 153.604 110.84 137.25 109.372Z" fill="#F6AB3E"/>
</svg>
