<?xml version="1.0" encoding="UTF-8"?>
<svg id="Capa_2" data-name="Capa 2" xmlns="http://www.w3.org/2000/svg" viewBox="0 0 1147.4 257.16">
  <defs>
    <style>
      .cls-1 {
        fill: none;
        stroke: #ec8927;
        stroke-miterlimit: 10;
        stroke-width: 4px;
      }
    </style>
  </defs>
  <g id="Capa_1-2" data-name="Capa 1">
    <g>
      <polygon class="cls-1" points="2 196.53 2 2 47.5 2 47.5 77.1 123.62 77.1 123.62 2 169.12 2 169.12 196.53 123.62 196.53 123.62 118.96 47.5 118.96 47.5 196.53 2 196.53"/>
      <path class="cls-1" d="M188.8,126.1c0-44.04,27.56-73.35,72.48-73.35s72.62,29.31,72.62,73.35-27.71,73.35-72.62,73.35-72.48-29.75-72.48-73.35Zm99.75,0c0-23.04-9.92-36.89-27.27-36.89s-26.98,13.71-26.98,36.89,9.92,36.75,26.98,36.75,27.27-13.56,27.27-36.75Z"/>
      <path class="cls-1" d="M397.47,196.53c-26.25,0-38.35-12.25-38.35-36.16V93h-16.33V55.67h16.33V17.46h44.04V55.67h27.71v37.33h-27.71v59.35c0,4.67,2.19,6.71,6.71,6.71h21v37.48h-33.39Z"/>
      <path class="cls-1" d="M499.26,196.54V2h82.25c61.83,0,101.64,40.25,101.64,97.41s-39.81,97.12-101.64,97.12h-82.25Zm45.5-41.85h36.75c33.54,0,54.25-24.64,54.25-55.27s-20.71-55.71-54.25-55.71h-36.75v110.98Z"/>
      <path class="cls-1" d="M698.89,126.1c0-44.04,27.56-73.35,72.48-73.35s72.62,29.31,72.62,73.35-27.71,73.35-72.62,73.35-72.48-29.75-72.48-73.35Zm99.75,0c0-23.04-9.92-36.89-27.27-36.89s-26.98,13.71-26.98,36.89,9.92,36.75,26.98,36.75,27.27-13.56,27.27-36.75Z"/>
      <path class="cls-1" d="M861.04,227.01l26.83-28c10.5,12.83,25.37,19.4,40.54,19.4,17.94,0,30.33-8.46,30.33-26.25v-15.75c-7.58,10.79-22.75,17.21-37.33,17.21-39.52,0-62.41-29.31-62.41-70.44s22.9-70.43,62.41-70.43c16.04,0,32.96,7.73,39.38,20.27v-17.35h41.85V194.35c0,39.23-29.46,60.81-72.18,60.81-29.6,0-54.39-10.35-69.41-28.15Zm97.56-103.83c0-20.12-9.92-33.98-26.98-33.98s-27.12,13.85-27.12,33.98,9.77,33.83,27.12,33.83,26.98-13.56,26.98-33.83Z"/>
      <path class="cls-1" d="M1016.35,160.95l38.5-11.37c3.5,8.89,11.52,16.04,28,16.04,12.98,0,19.54-3.94,19.54-11.08,0-4.08-2.48-7.15-9.77-8.31l-31.06-5.25c-28-4.67-41.71-18.52-41.71-40.54,0-29.17,25.52-47.68,60.08-47.68,31.06,0,55.71,14.73,63,37.92l-38.94,11.23c-3.21-8.6-10.21-15.46-24.06-15.46-11.08,0-17.06,4.67-17.06,10.5,0,4.52,2.33,7.58,9.48,8.75l31.35,5.25c27.56,4.52,41.71,17.5,41.71,41.56,0,29.6-26.4,46.96-63.14,46.96-33.69,0-59.5-14.73-65.91-38.5Z"/>
    </g>
  </g>
</svg>